<svg width="256" height="256" viewBox="0 0 256 256" fill="none" xmlns="http://www.w3.org/2000/svg">
<g clip-path="url(#clip0_2_2)">
<path fill-rule="evenodd" clip-rule="evenodd" d="M128 256C198.692 256 256 198.692 256 128C256 57.3076 198.692 0 128 0C57.3076 0 0 57.3076 0 128C0 198.692 57.3076 256 128 256ZM128 192C163.346 192 192 163.346 192 128C192 92.6538 163.346 64 128 64C92.6538 64 64 92.6538 64 128C64 163.346 92.6538 192 128 192Z" fill="url(#paint0_angular_2_2)"/>
<circle cx="128" cy="224" r="32" fill="white"/>
</g>
<defs>
<radialGradient id="paint0_angular_2_2" cx="0" cy="0" r="1" gradientUnits="userSpaceOnUse" gradientTransform="translate(128 128) rotate(90) scale(128)">
<stop stop-color="white"/>
<stop offset="0.06" stop-color="white"/>
<stop offset="0.445" stop-color="white" stop-opacity="0.17"/>
<stop offset="1" stop-color="white" stop-opacity="0"/>
</radialGradient>
<clipPath id="clip0_2_2">
<rect width="256" height="256" fill="white"/>
</clipPath>
</defs>
</svg>
